<svg width="12" height="13" viewBox="0 0 12 13" fill="none" xmlns="http://www.w3.org/2000/svg">
<path d="M11.0365 7.21522H9.54555C9.34556 7.21522 9.16376 7.28792 9.01826 7.39702V6.99703H9.49095C9.54546 6.99703 9.60005 6.96063 9.63645 6.92432C9.81825 7.06982 10.0546 7.16072 10.291 7.16072C10.8728 7.16072 11.3456 6.68802 11.3456 6.08793C11.3456 5.48793 10.8729 5.01515 10.291 5.01515C10.0546 5.01515 9.83643 5.08785 9.67283 5.21515V4.21516C9.67283 3.61516 9.23643 3.12427 8.70916 3.12427H7.21819C6.69089 3.12427 6.25452 3.61516 6.25452 4.21516V5.03335C6.16362 5.01516 6.09091 4.99696 5.99993 4.99696C5.90903 4.99696 5.81813 5.01516 5.74535 5.03335V4.21516C5.74535 3.61516 5.30895 3.12427 4.78167 3.12427H3.29071C2.76341 3.12427 2.32703 3.61516 2.32703 4.21516V5.21515C2.14523 5.08785 1.94523 5.01515 1.70884 5.01515C1.12703 5.01515 0.65425 5.48785 0.65425 6.08793C0.65425 6.68793 1.12695 7.16072 1.70884 7.16072C1.96343 7.16072 2.18154 7.06982 2.36342 6.92432C2.39981 6.96072 2.45432 6.99703 2.50891 6.99703H2.98161V7.39702C2.83611 7.28792 2.65432 7.21522 2.45431 7.21522H0.963673C0.436377 7.21522 0 7.70611 0 8.30611V10.8879C0 10.997 0.0727037 11.0697 0.181801 11.0697H0.654498V12.4697C0.654498 12.7424 0.872693 12.9424 1.12719 12.9424H2.29087C2.54546 12.9424 2.76357 12.7242 2.76357 12.4697V11.0697H3.23627C3.34536 11.0697 3.41807 10.997 3.41807 10.8879L3.41824 8.86977H3.45463H4.29103V10.8879C4.29103 10.997 4.36373 11.0697 4.47283 11.0697H4.94552V12.4697C4.94552 12.7424 5.16372 12.9424 5.41822 12.9424H6.5819C6.83648 12.9424 7.05459 12.7242 7.05459 12.4697V11.0697H7.52729C7.63639 11.0697 7.70909 10.997 7.70909 10.8879L7.70918 8.86977H8.54557H8.58196V10.8879C8.58196 10.997 8.65467 11.0697 8.76376 11.0697H9.23646V12.4697C9.23646 12.7424 9.45466 12.9424 9.70916 12.9424H10.8728C11.1274 12.9424 11.3455 12.7242 11.3455 12.4697V11.0697L11.8184 11.0698C11.9275 11.0698 12.0002 10.9971 12.0002 10.888V8.30619C12.0002 7.70619 11.5638 7.21522 11.0365 7.21522ZM10.291 5.37884C10.6728 5.37884 10.9819 5.70612 10.9819 6.08792C10.9819 6.46972 10.6728 6.79701 10.291 6.79701C9.90923 6.79701 9.60013 6.46972 9.60013 6.08792C9.60013 5.97883 9.61833 5.88793 9.65464 5.79702C9.76374 5.56063 10.0001 5.37884 10.291 5.37884ZM6.69094 6.08792C6.69094 6.48792 6.38185 6.79701 6.00005 6.79701C5.61825 6.79701 5.30915 6.46972 5.30915 6.08792C5.30915 5.70612 5.61825 5.37884 6.00005 5.37884C6.38185 5.37884 6.69094 5.68793 6.69094 6.08792ZM1.7092 6.79701C1.3274 6.79701 1.0183 6.46972 1.0183 6.08792C1.0183 5.70612 1.3274 5.37884 1.7092 5.37884C2.091 5.37884 2.40009 5.70612 2.40009 6.08792C2.40009 6.46981 2.091 6.79701 1.7092 6.79701ZM3.05467 10.7062H2.76377V9.45162C2.76377 9.34252 2.69106 9.26982 2.58197 9.26982C2.47287 9.26982 2.40017 9.34252 2.40017 9.45162V12.4699C2.40017 12.5244 2.34566 12.579 2.29107 12.579H1.89108V10.9609C1.89108 10.8518 1.81837 10.7791 1.70927 10.7791C1.60018 10.7791 1.52747 10.8518 1.52747 10.9609L1.5273 12.579H1.12731C1.0728 12.579 1.01821 12.5245 1.01821 12.4699V9.45184C1.01821 9.34274 0.945507 9.27004 0.836409 9.27004C0.727311 9.27004 0.654607 9.34274 0.654607 9.45184V10.7064L0.363704 10.7063V8.30642C0.363704 7.90643 0.636415 7.57914 0.963703 7.57914H2.45467C2.78196 7.57914 3.05467 7.90643 3.05467 8.30642L3.05467 10.7062ZM7.05481 10.7062V9.45162C7.05481 9.34252 6.98211 9.26982 6.87301 9.26982C6.76392 9.26982 6.69121 9.34252 6.69121 9.45162V12.4699C6.69121 12.5244 6.63671 12.579 6.58212 12.579H6.18203V10.9609C6.18203 10.8518 6.10933 10.7791 6.00023 10.7791C5.89114 10.7791 5.81843 10.8518 5.81843 10.9609V12.579H5.41844C5.36393 12.579 5.30934 12.5245 5.30934 12.4699V9.45184C5.30934 9.34274 5.23664 9.27004 5.12754 9.27004C5.01844 9.27004 4.94574 9.34274 4.94574 9.45184V10.7064H4.65484V8.30628C4.65484 7.90629 4.92755 7.579 5.25483 7.579H6.7458C7.07309 7.579 7.3458 7.90629 7.3458 8.30628V10.7064L7.05481 10.7062ZM8.5457 8.5062H8.1457V6.88802C8.1457 6.77892 8.073 6.70622 7.9639 6.70622C7.8548 6.70622 7.7821 6.77892 7.7821 6.88802V8.5062H7.7094V8.3062C7.7094 7.70621 7.273 7.21532 6.74572 7.21532H5.25476C4.72746 7.21532 4.29108 7.70621 4.29108 8.3062V8.5062H4.21838V6.88802C4.21838 6.77892 4.14567 6.70622 4.03658 6.70622C3.92748 6.70622 3.85478 6.77892 3.85478 6.88802V8.5062H3.45478H3.41839V8.3062C3.41839 8.16071 3.40019 8.0153 3.34569 7.88802V5.37882C3.34569 5.26973 3.27298 5.19702 3.16388 5.19702C3.05479 5.19702 2.98208 5.26973 2.98208 5.37882V6.6334H2.69118V6.46979C2.74569 6.3425 2.76388 6.21521 2.76388 6.088C2.76388 5.9607 2.74569 5.81528 2.69118 5.7062V4.23342C2.69118 3.83343 2.96389 3.50614 3.29118 3.50614H4.78215C5.10944 3.50614 5.38215 3.83343 5.38215 4.23342V5.23341C5.12756 5.43341 4.94575 5.74251 4.94575 6.10619C4.94575 6.70619 5.41844 7.17897 6.00034 7.17897C6.58214 7.17897 7.05493 6.70627 7.05493 6.10619C7.05493 5.74258 6.89132 5.43348 6.61853 5.23341V4.25161C6.61853 3.85162 6.89124 3.52433 7.21853 3.52433H8.7095C9.03679 3.52433 9.3095 3.85162 9.3095 4.25161V5.72439C9.25499 5.85168 9.23679 5.97897 9.23679 6.10619C9.23679 6.25168 9.25499 6.3789 9.3095 6.48799V6.65159H9.01859V5.39702C9.01859 5.28792 8.94589 5.21521 8.83679 5.21521C8.72769 5.21521 8.65499 5.28792 8.65499 5.39702V7.90621C8.60048 8.03351 8.58229 8.17892 8.58229 8.3244V8.5244C8.58212 8.5062 8.56392 8.5062 8.54572 8.5062L8.5457 8.5062ZM11.6367 10.7062H11.3458V9.45162C11.3458 9.34252 11.273 9.26982 11.1639 9.26982C11.0549 9.26982 10.9821 9.34252 10.9821 9.45162V12.4699C10.9821 12.5244 10.9276 12.579 10.8731 12.579H10.4731V10.9609C10.4731 10.8518 10.4004 10.7791 10.2913 10.7791C10.1822 10.7791 10.1095 10.8518 10.1095 10.9609L10.1094 12.579H9.70938C9.65487 12.579 9.60028 12.5245 9.60028 12.4699V9.45184C9.60028 9.34274 9.52758 9.27004 9.41848 9.27004C9.30938 9.27004 9.23668 9.34274 9.23668 9.45184V10.7064H8.94577L8.94569 8.30628C8.94569 7.90629 9.2184 7.579 9.54569 7.579H11.0367C11.3639 7.579 11.6367 7.90629 11.6367 8.30628V10.7062Z" fill="black"/>
<path d="M4.0364 3.08786C4.61821 3.08786 5.09099 2.61517 5.09099 2.01508C5.09099 1.41517 4.61821 0.942383 4.0364 0.942383C3.4546 0.942383 2.98181 1.41508 2.98181 2.01517C2.98181 2.61517 3.4546 3.08786 4.0364 3.08786ZM4.0364 1.30608C4.4182 1.30608 4.7273 1.63337 4.7273 2.01517C4.7273 2.39697 4.4182 2.72425 4.0364 2.72425C3.6546 2.72425 3.34551 2.39697 3.34551 2.01517C3.34551 1.63337 3.6546 1.30608 4.0364 1.30608Z" fill="black"/>
<path d="M7.96365 3.08786C8.54546 3.08786 9.01824 2.61517 9.01824 2.01508C9.01824 1.41517 8.54546 0.942383 7.96365 0.942383C7.38184 0.942383 6.90906 1.41517 6.90906 2.01517C6.90906 2.61517 7.38184 3.08786 7.96365 3.08786ZM7.96365 1.30608C8.34545 1.30608 8.65454 1.63337 8.65454 2.01517C8.65454 2.39697 8.34545 2.72425 7.96365 2.72425C7.58185 2.72425 7.27275 2.39697 7.27275 2.01517C7.27275 1.63337 7.58185 1.30608 7.96365 1.30608Z" fill="black"/>
</svg>
