<svg width="13" height="16" viewBox="0 0 13 16" fill="none" xmlns="http://www.w3.org/2000/svg">
<path d="M12.2 15V11.5C12.2 10.18 12.2 9.52007 11.7899 9.11001C11.3799 8.69995 10.7199 8.69995 9.4 8.69995L6.6 15L3.8 8.69995C2.48007 8.69995 1.8201 8.69995 1.41005 9.11001C1 9.52007 1 10.18 1 11.5V15" stroke="#141B34" stroke-linecap="round" stroke-linejoin="round"/>
<path d="M6.60002 10.1L6.25002 12.9L6.60002 13.95L6.95002 12.9L6.60002 10.1ZM6.60002 10.1L5.90002 8.69995H7.30002L6.60002 10.1Z" stroke="#141B34" stroke-linecap="round" stroke-linejoin="round"/>
<path d="M9.05002 4.15V3.45C9.05002 2.09691 7.95312 1 6.60002 1C5.24692 1 4.15002 2.09691 4.15002 3.45V4.15C4.15002 5.5031 5.24692 6.59999 6.60002 6.59999C7.95312 6.59999 9.05002 5.5031 9.05002 4.15Z" stroke="#141B34" stroke-linecap="round" stroke-linejoin="round"/>
</svg>
